<?xml version="1.0" encoding="UTF-8" standalone="no"?>
<svg
   viewBox="0 0 397.49002 258.17419"
   version="1.1"
   id="svg123"
   sodipodi:docname="not-found.svg"
   width="397.49002"
   height="258.17419"
   inkscape:version="1.1 (c68e22c387, 2021-05-23)"
   xmlns:inkscape="http://www.inkscape.org/namespaces/inkscape"
   xmlns:sodipodi="http://sodipodi.sourceforge.net/DTD/sodipodi-0.dtd"
   xmlns="http://www.w3.org/2000/svg"
   xmlns:svg="http://www.w3.org/2000/svg">
  <defs
     id="defs127" />
  <sodipodi:namedview
     id="namedview125"
     pagecolor="#ffffff"
     bordercolor="#666666"
     borderopacity="1.0"
     inkscape:pageshadow="2"
     inkscape:pageopacity="0.0"
     inkscape:pagecheckerboard="0"
     showgrid="false"
     fit-margin-top="0"
     fit-margin-left="0"
     fit-margin-right="0"
     fit-margin-bottom="0"
     inkscape:zoom="1.248"
     inkscape:cx="211.13782"
     inkscape:cy="174.27885"
     inkscape:window-width="2560"
     inkscape:window-height="1025"
     inkscape:window-x="1366"
     inkscape:window-y="27"
     inkscape:window-maximized="1"
     inkscape:current-layer="svg123" />
  <g
     id="freepik--screens-2--inject-126"
     transform="translate(-38.73,-75.675703)">
    <path
       d="m 88.4,148 v 50.3 c 0,1.65 1.16,2.33 2.6,1.5 l 116.78,-67.43 a 5.76,5.76 0 0 0 2.6,-4.5 V 77.53 c 0,-1.65 -1.17,-2.33 -2.6,-1.5 L 91,143.46 A 5.73,5.73 0 0 0 88.4,148 Z"
       style="fill:#f0f0f0"
       id="path2" />
    <path
       d="m 96.53,147.21 35,-20.2 c 1.61,-0.93 2.9,-0.18 2.9,1.67 v 35.17 a 6.37,6.37 0 0 1 -2.9,5 l -35,20.21 c -1.6,0.92 -2.9,0.17 -2.9,-1.68 v -35.15 a 6.4,6.4 0 0 1 2.9,-5.02 z"
       style="fill:#fafafa"
       id="path4" />
    <path
       d="m 124.87,144.56 -10.41,21.58 -5.3,-3.06 a 2.24,2.24 0 0 0 -3,0.82 l -12.53,21.61 v 1.89 c 0,1.85 1.3,2.6 2.9,1.68 l 35,-20.21 a 6.4,6.4 0 0 0 2.9,-5 V 151.5 l -7,-7.34 a 1.45,1.45 0 0 0 -2.56,0.4 z"
       style="fill:#ca20fe"
       id="path6" />
    <path
       d="m 98.89,160.08 a 16.43,16.43 0 0 0 7.43,-12.87 c 0,-2.17 -0.7,-3.74 -1.85,-4.58 l -7.94,4.58 a 6.4,6.4 0 0 0 -2.9,5 v 8.37 c 1.37,0.8 3.21,0.68 5.26,-0.5 z"
       style="fill:#ca20fe"
       id="path8" />
    <path
       d="m 147.49,121.08 52.59,-30.37 c 1.2,-0.69 2.17,-0.2 2.17,1.1 a 4.64,4.64 0 0 1 -2.17,3.6 l -52.59,30.36 c -1.2,0.69 -2.17,0.2 -2.17,-1.1 a 4.64,4.64 0 0 1 2.17,-3.59 z"
       style="fill:#fafafa"
       id="path10" />
    <path
       d="m 147.49,131.47 52.59,-30.37 c 1.2,-0.69 2.17,-0.2 2.17,1.1 a 4.64,4.64 0 0 1 -2.17,3.6 l -52.59,30.36 c -1.2,0.69 -2.17,0.2 -2.17,-1.09 a 4.64,4.64 0 0 1 2.17,-3.6 z"
       style="fill:#fafafa"
       id="path12" />
    <path
       d="m 147.49,141.86 52.59,-30.36 c 1.2,-0.69 2.17,-0.2 2.17,1.09 a 4.64,4.64 0 0 1 -2.17,3.6 l -52.59,30.36 c -1.2,0.7 -2.17,0.21 -2.17,-1.09 a 4.64,4.64 0 0 1 2.17,-3.6 z"
       style="fill:#fafafa"
       id="path14" />
    <path
       d="m 147.49,152.25 52.59,-30.36 c 1.2,-0.69 2.17,-0.2 2.17,1.1 a 4.64,4.64 0 0 1 -2.17,3.59 L 147.49,157 c -1.2,0.69 -2.17,0.2 -2.17,-1.1 a 4.64,4.64 0 0 1 2.17,-3.65 z"
       style="fill:#fafafa"
       id="path16" />
    <path
       d="m 64,306.26 v -73.81 a 5.73,5.73 0 0 1 2.6,-4.5 l 88.32,-51 c 1.43,-0.83 2.6,-0.16 2.6,1.5 v 73.81 a 5.76,5.76 0 0 1 -2.6,4.5 l -88.32,51 c -1.44,0.83 -2.6,0.16 -2.6,-1.5 z"
       style="fill:#f0f0f0"
       id="path18" />
    <path
       d="m 64,302.57 v 3.69 c 0,1.66 1.16,2.33 2.6,1.5 l 88.32,-51 a 5.76,5.76 0 0 0 2.6,-4.5 v -3.7 z"
       style="fill:#ca20fe"
       id="path20" />
    <path
       d="m 106.73,235.63 9,-0.47 c 1.1,-0.06 1.4,0.56 0.67,1.4 l -10.34,11.76 c -0.73,0.83 -1.32,0.6 -1.32,-0.5 v -10.08 a 2.13,2.13 0 0 1 1.99,-2.11 z"
       style="fill:#ca20fe"
       id="path22" />
    <path
       d="m 104.41,254.77 a 6.09,6.09 0 0 1 -3.08,-0.79 c -2.22,-1.29 -3.44,-4 -3.44,-7.54 0,-7.22 5.09,-16 11.35,-19.65 3.09,-1.79 6,-2.06 8.24,-0.78 2.24,1.28 3.45,4 3.45,7.53 0,7.23 -5.1,16 -11.35,19.65 a 10.49,10.49 0 0 1 -5.17,1.58 z m 10,-28.87 a 9.8,9.8 0 0 0 -4.82,1.49 c -6.07,3.5 -11,12.05 -11,19.05 0,3.32 1.1,5.79 3.1,6.94 2,1.15 4.68,0.88 7.55,-0.78 6.07,-3.51 11,-12 11,-19.06 0,-3.32 -1.1,-5.78 -3.1,-6.94 a 5.5,5.5 0 0 0 -2.74,-0.7 z"
       style="fill:#ca20fe"
       id="path24" />
  </g>
  <g
     id="freepik--Locator--inject-126"
     transform="translate(-38.73,-75.675703)">
    <path
       d="m 68.87,163.86 -5.47,-3.14 v 0 c -2.61,-1.75 -6.24,-1.68 -10.25,0.64 -8,4.6 -14.42,16.27 -14.42,26.07 v 2.23 c 0,9.8 13.18,20.44 13.18,20.44 l 5.38,3.05 c 0,0 -3.23,-3.69 -2.86,-4.45 C 58,201.46 67.55,181 67.55,173 v -2.23 a 17.33,17.33 0 0 0 -0.61,-4.78 l 0.61,0.35 z m -15.73,22.47 c -4,2.3 -7.21,0.43 -7.21,-4.16 2.14,-0.34 7.53,-9.54 7.21,-12.49 4,-2.3 7.2,-0.43 7.21,4.16 a 15.94,15.94 0 0 1 -7.21,12.49 z"
       style="fill:#ca20fe"
       id="path27" />
    <g
       style="opacity:0.2"
       id="g31">
      <path
         d="m 68.87,163.86 -5.47,-3.14 v 0 c -2.61,-1.75 -6.24,-1.68 -10.25,0.64 -8,4.6 -14.42,16.27 -14.42,26.07 v 2.23 c 0,9.8 13.18,20.44 13.18,20.44 l 5.38,3.05 c 0,0 -3.23,-3.69 -2.86,-4.45 C 58,201.46 67.55,181 67.55,173 v -2.23 a 17.33,17.33 0 0 0 -0.61,-4.78 l 0.61,0.35 z m -15.73,22.47 c -4,2.3 -7.21,0.43 -7.21,-4.16 2.14,-0.34 7.53,-9.54 7.21,-12.49 4,-2.3 7.2,-0.43 7.21,4.16 a 15.94,15.94 0 0 1 -7.21,12.49 z"
         id="path29" />
    </g>
    <path
       d="m 68.87,163.86 a 1.18,1.18 0 0 0 -0.19,-0.11 c -2.57,-1.44 -6,-1.24 -9.78,0.94 -5.7,3.3 -10.63,10.21 -13,17.48 v 0 a 28.42,28.42 0 0 0 -1.44,8.57 V 193 c 0,7.55 8.55,16.31 12.48,19.94 a 2.47,2.47 0 0 0 0.27,0.21 c 0,0 0,0 0,0 a 1.94,1.94 0 0 0 2.76,-0.81 c 3.4,-7 13.29,-27.88 13.29,-36 v -2.23 c 0.06,-5.04 -1.65,-8.6 -4.39,-10.25 z m -17.05,23.08 a 8.06,8.06 0 0 1 -0.12,-1.44 15.93,15.93 0 0 1 7.2,-12.5 9,9 0 0 1 1.31,-0.62 c 3.36,-1.22 5.9,0.71 5.9,4.78 a 15.91,15.91 0 0 1 -7.21,12.48 c -3.53,2.06 -6.47,0.82 -7.08,-2.7 z"
       style="fill:#ca20fe"
       id="path33" />
    <path
       d="m 66.11,177.17 a 15.91,15.91 0 0 1 -7.21,12.48 c -3.53,2 -6.47,0.81 -7.08,-2.71 a 7.71,7.71 0 0 0 1.32,-0.61 15.93,15.93 0 0 0 7.2,-12.49 7.38,7.38 0 0 0 -0.13,-1.45 c 3.36,-1.22 5.9,0.71 5.9,4.78 z"
       style="fill:#ca20fe"
       id="path35" />
    <g
       style="opacity:0.2"
       id="g39">
      <path
         d="m 66.11,177.17 a 15.91,15.91 0 0 1 -7.21,12.48 c -3.53,2 -6.47,0.81 -7.08,-2.71 a 7.71,7.71 0 0 0 1.32,-0.61 15.93,15.93 0 0 0 7.2,-12.49 7.38,7.38 0 0 0 -0.13,-1.45 c 3.36,-1.22 5.9,0.71 5.9,4.78 z"
         id="path37" />
    </g>
  </g>
  <g
     id="freepik--Plants--inject-126"
     transform="translate(-38.73,-75.675703)">
    <path
       d="m 171.18,301.33 c 0,0 3.61,-23 -4.41,-42.78 -8.02,-19.78 -18.83,-21 -24.43,-18.19 -5.6,2.81 -2,13.78 3,21.15 6.66,9.67 17.66,30.49 17.3,49.19 z"
       style="fill:#ca20fe"
       id="path42" />
    <path
       d="m 171.18,301.33 c 0,0 3.61,-23 -4.41,-42.78 -8.02,-19.78 -18.83,-21 -24.43,-18.19 -5.6,2.81 -2,13.78 3,21.15 6.66,9.67 17.66,30.49 17.3,49.19 z"
       style="opacity:0.2"
       id="path44" />
    <path
       d="m 167.58,302.79 v 0 a 0.67,0.67 0 0 1 -0.65,-0.71 c 1.32,-31.49 -14.41,-55 -21.2,-59.58 a 0.68090014,0.68090014 0 1 1 0.76,-1.13 c 8,5.34 23.12,29.38 21.79,60.77 a 0.67,0.67 0 0 1 -0.7,0.65 z"
       style="fill:#ffffff"
       id="path46" />
    <path
       d="m 169.76,328.64 c -1.37,-3.44 -4.91,-7.28 -14,-11.38 -9.09,-4.1 -15.93,-9.57 -17.19,-13.53 a 5.91,5.91 0 0 1 1.61,-6.31 c 0,0 -8.57,-1 -9.65,-6.25 -1.35,-6.62 6.14,-7.05 6.14,-7.05 0,0 -9.83,-13.84 -12.44,-20 -2.61,-6.16 0.4,-6.53 6.74,-4.18 6.34,2.35 18.42,14.18 20.29,17.79 0,0 3.27,-4 6.79,-1.37 3.52,2.63 3.69,10.5 1.61,13.34 a 7.38,7.38 0 0 1 7.43,3.07 c 3.58,4.69 4.76,16.42 4.76,16.42 z"
       style="fill:#ca20fe"
       id="path48" />
    <path
       d="m 170.4,325.44 a 0.69,0.69 0 0 1 -0.66,-0.52 c -4.86,-20.25 -27.93,-52.57 -42.26,-62.85 a 0.68121215,0.68121215 0 0 1 0.79,-1.11 c 14.51,10.41 37.87,43.14 42.8,63.64 a 0.69,0.69 0 0 1 -0.51,0.82 z"
       style="fill:#ffffff"
       id="path50" />
  </g>
  <g
     id="freepik--screen-1--inject-126"
     transform="translate(-38.73,-75.675703)">
    <path
       d="m 351.41,121.53 a 0.72,0.72 0 0 1 -0.34,-0.09 l -2.81,-1.63 a 0.68095521,0.68095521 0 1 1 0.68,-1.18 l 2.81,1.63 a 0.68,0.68 0 0 1 0.25,0.93 0.68,0.68 0 0 1 -0.59,0.34 z"
       style="fill:#ffffff"
       id="path53" />
    <path
       d="M 169.76,180.82 V 329.6 c 0,1.66 1.16,2.33 2.59,1.5 L 345.89,230.91 a 5.76,5.76 0 0 0 2.6,-4.5 V 77.63 c 0,-1.66 -1.17,-2.33 -2.6,-1.5 L 172.35,176.32 a 5.74,5.74 0 0 0 -2.59,4.5 z"
       style="fill:#455a64"
       id="path55" />
    <path
       d="m 190.07,208.3 c 0,5.19 3.87,7.15 8.66,4.39 L 336.3,133.26 V 114.5 l -137.57,79.42 c -4.79,2.77 -8.66,9.2 -8.66,14.38 z"
       style="fill:#f5f5f5"
       id="path57" />
    <path
       d="m 348,107.77 c 4.78,-2.76 8.66,-0.8 8.66,4.38 0,5.18 -3.88,11.62 -8.66,14.38 l -11.65,6.73 V 114.5 Z"
       style="fill:#ca20fe"
       id="path59" />
    <path
       d="m 343.8,123.58 a 2.76,2.76 0 0 1 -1.42,-0.37 3.55,3.55 0 0 1 -1.56,-3.28 9.8,9.8 0 0 1 4.5,-7.8 3.2,3.2 0 0 1 5.18,3 9.83,9.83 0 0 1 -4.5,7.8 4.44,4.44 0 0 1 -2.2,0.65 z m 3.71,-10.75 a 3.1,3.1 0 0 0 -1.51,0.48 8.59,8.59 0 0 0 -3.82,6.62 1.88,1.88 0 0 0 3.14,1.81 8.57,8.57 0 0 0 3.82,-6.62 2.27,2.27 0 0 0 -0.88,-2.1 1.44,1.44 0 0 0 -0.75,-0.19 z"
       style="fill:#ffffff"
       id="path61" />
    <path
       d="m 350,148.83 -133,76.74 a 5.71,5.71 0 0 0 -2.6,4.5 V 271 c 0,1.66 1.16,2.33 2.6,1.5 l 133,-76.77 a 5.73,5.73 0 0 0 2.6,-4.5 v -40.9 c -0.05,-1.66 -1.21,-2.33 -2.6,-1.5 z"
       style="fill:#ca20fe"
       id="path63" />
    <path
       d="m 350,148.83 -133,76.74 a 5.71,5.71 0 0 0 -2.6,4.5 V 271 c 0,1.66 1.16,2.33 2.6,1.5 l 133,-76.77 a 5.73,5.73 0 0 0 2.6,-4.5 v -40.9 c -0.05,-1.66 -1.21,-2.33 -2.6,-1.5 z"
       style="opacity:0.2;fill:#ffffff"
       id="path65" />
    <path
       d="m 265.35,204.48 24.1,-13.92 c 1.2,-0.69 2.17,-0.2 2.17,1.1 a 4.64,4.64 0 0 1 -2.17,3.59 l -24.1,13.92 c -1.2,0.69 -2.17,0.2 -2.17,-1.1 a 4.64,4.64 0 0 1 2.17,-3.59 z"
       style="fill:#ffffff"
       id="path67" />
    <path
       d="m 263.18,217.45 c 0,1.3 1,1.79 2.17,1.1 l 72.85,-42.06 a 4.65,4.65 0 0 0 2.16,-3.6 c 0,-1.29 -1,-1.78 -2.16,-1.09 l -72.85,42.06 a 4.64,4.64 0 0 0 -2.17,3.59 z"
       style="fill:#ffffff"
       id="path69" />
    <path
       d="m 263.18,226.83 c 0,1.3 1,1.79 2.17,1.1 l 72.85,-42.06 a 4.65,4.65 0 0 0 2.16,-3.6 c 0,-1.29 -1,-1.78 -2.16,-1.09 l -72.85,42.06 a 4.64,4.64 0 0 0 -2.17,3.59 z"
       style="fill:#ffffff"
       id="path71" />
    <path
       d="m 263.18,236.21 c 0,1.3 1,1.79 2.17,1.1 l 72.85,-42.06 a 4.65,4.65 0 0 0 2.16,-3.6 c 0,-1.29 -1,-1.78 -2.16,-1.09 l -72.85,42.06 a 4.64,4.64 0 0 0 -2.17,3.59 z"
       style="fill:#ffffff"
       id="path73" />
    <path
       d="m 221.1,227.91 31.36,-18.11 c 1.44,-0.82 2.6,-0.15 2.6,1.5 v 31.53 a 5.74,5.74 0 0 1 -2.6,4.5 l -31.36,18.1 c -1.43,0.83 -2.6,0.16 -2.6,-1.49 v -31.53 a 5.73,5.73 0 0 1 2.6,-4.5 z"
       style="fill:#ffffff"
       id="path75" />
    <path
       d="m 246.5,225.54 -9.33,19.34 -4.75,-2.74 a 2,2 0 0 0 -2.73,0.73 l -11.19,19.37 v 1.69 c 0,1.66 1.17,2.33 2.6,1.5 l 31.36,-18.1 a 5.73,5.73 0 0 0 2.6,-4.5 v -11.07 l -6.31,-6.58 a 1.3,1.3 0 0 0 -2.25,0.36 z"
       style="fill:#ca20fe"
       id="path77" />
    <path
       d="m 223.21,239.45 a 14.73,14.73 0 0 0 6.66,-11.54 4.89,4.89 0 0 0 -1.66,-4.11 l -7.11,4.11 a 5.73,5.73 0 0 0 -2.6,4.5 v 7.5 c 1.21,0.7 2.87,0.6 4.71,-0.46 z"
       style="fill:#ca20fe"
       id="path79" />
    <path
       d="m 350,209.8 -133,76.74 a 5.73,5.73 0 0 0 -2.6,4.5 V 332 c 0,1.65 1.16,2.32 2.6,1.5 l 133,-76.79 a 5.73,5.73 0 0 0 2.6,-4.5 V 211.3 c -0.05,-1.65 -1.21,-2.3 -2.6,-1.5 z"
       style="fill:#ca20fe"
       id="path81" />
    <path
       d="m 350,209.8 -133,76.74 a 5.73,5.73 0 0 0 -2.6,4.5 V 332 c 0,1.65 1.16,2.32 2.6,1.5 l 133,-76.79 a 5.73,5.73 0 0 0 2.6,-4.5 V 211.3 c -0.05,-1.65 -1.21,-2.3 -2.6,-1.5 z"
       style="opacity:0.2;fill:#ffffff"
       id="path83" />
    <path
       d="m 265.35,265.45 24.1,-13.91 c 1.2,-0.69 2.17,-0.2 2.17,1.09 a 4.64,4.64 0 0 1 -2.17,3.6 l -24.1,13.91 c -1.2,0.69 -2.17,0.2 -2.17,-1.09 a 4.64,4.64 0 0 1 2.17,-3.6 z"
       style="fill:#ffffff"
       id="path85" />
    <path
       d="m 263.18,278.43 c 0,1.29 1,1.78 2.17,1.09 l 72.85,-42.06 a 4.65,4.65 0 0 0 2.16,-3.59 c 0,-1.3 -1,-1.79 -2.16,-1.1 l -72.85,42.06 a 4.64,4.64 0 0 0 -2.17,3.6 z"
       style="fill:#ffffff"
       id="path87" />
    <path
       d="m 263.18,287.81 c 0,1.29 1,1.78 2.17,1.09 l 72.85,-42.06 a 4.65,4.65 0 0 0 2.16,-3.59 c 0,-1.3 -1,-1.79 -2.16,-1.1 l -72.85,42.06 a 4.64,4.64 0 0 0 -2.17,3.6 z"
       style="fill:#ffffff"
       id="path89" />
    <path
       d="m 263.18,297.19 c 0,1.29 1,1.78 2.17,1.09 l 72.85,-42.06 a 4.65,4.65 0 0 0 2.16,-3.59 c 0,-1.3 -1,-1.79 -2.16,-1.1 l -72.85,42.06 a 4.64,4.64 0 0 0 -2.17,3.6 z"
       style="fill:#ffffff"
       id="path91" />
    <path
       d="m 221.1,288.89 31.36,-18.11 c 1.44,-0.83 2.6,-0.16 2.6,1.5 v 31.52 a 5.71,5.71 0 0 1 -2.6,4.5 l -31.36,18.11 c -1.43,0.83 -2.6,0.16 -2.6,-1.5 v -31.52 a 5.73,5.73 0 0 1 2.6,-4.5 z"
       style="fill:#ffffff"
       id="path93" />
    <path
       d="m 246.5,286.52 -9.33,19.34 -4.75,-2.75 a 2,2 0 0 0 -2.73,0.74 l -11.19,19.37 v 1.69 c 0,1.66 1.17,2.33 2.6,1.5 l 31.36,-18.11 a 5.71,5.71 0 0 0 2.6,-4.49 v -11.08 l -6.31,-6.57 a 1.29,1.29 0 0 0 -2.25,0.36 z"
       style="fill:#ca20fe"
       id="path95" />
    <path
       d="m 223.21,300.42 a 14.71,14.71 0 0 0 6.66,-11.53 4.89,4.89 0 0 0 -1.66,-4.11 l -7.11,4.11 a 5.73,5.73 0 0 0 -2.6,4.5 v 7.5 c 1.21,0.69 2.87,0.59 4.71,-0.47 z"
       style="fill:#ca20fe"
       id="path97" />
    <path
       d="m 348.49,84 v -6.37 c 0,-1.66 -1.17,-2.33 -2.6,-1.5 L 172.36,176.32 a 5.73,5.73 0 0 0 -2.6,4.5 v 6.38 z"
       style="fill:#ca20fe"
       id="path99" />
    <path
       d="m 327.2,89.36 a 4.27,4.27 0 0 0 -1.92,3.34 c 0,1.23 0.86,1.73 1.92,1.11 a 4.22,4.22 0 0 0 1.93,-3.33 c 0,-1.23 -0.86,-1.73 -1.93,-1.12 z"
       style="fill:#f5f5f5"
       id="path101" />
    <path
       d="m 334.85,85 a 4.27,4.27 0 0 0 -1.93,3.34 c 0,1.23 0.87,1.72 1.93,1.11 a 4.24,4.24 0 0 0 1.93,-3.34 c 0,-1.28 -0.86,-1.77 -1.93,-1.11 z"
       style="fill:#f5f5f5"
       id="path103" />
    <path
       d="m 342.5,80.54 a 4.22,4.22 0 0 0 -1.93,3.33 c 0,1.23 0.86,1.73 1.93,1.12 a 4.27,4.27 0 0 0 1.92,-3.34 c 0,-1.23 -0.86,-1.73 -1.92,-1.11 z"
       style="fill:#f5f5f5"
       id="path105" />
  </g>
  <g
     id="freepik--magnifiyng-glass--inject-126"
     transform="translate(-38.73,-75.675703)">
    <path
       d="m 436.22,251.66 a 9.26,9.26 0 0 1 -16.05,6.3 l -0.61,-0.74 v 0 a 9.26,9.26 0 0 1 14.2,-11.85 l 0.63,0.76 v 0 a 9.28,9.28 0 0 1 1.83,5.53 z"
       style="fill:#455a64"
       id="path108" />
    <path
       d="m 436.22,251.66 a 9.26,9.26 0 0 1 -16.05,6.3 l -0.61,-0.74 v 0 L 381,210.65 l 16.25,-9.38 36.51,44.08 0.63,0.76 v 0 a 9.28,9.28 0 0 1 1.83,5.55 z"
       style="fill:#455a64"
       id="path110" />
    <path
       d="M 404.32,238.81 A 9.26,9.26 0 0 0 418.53,227 v 0 l -4.77,-5.75 v 0 a 9.26,9.26 0 0 1 -14.21,11.84 z"
       style="fill:#ca20fe"
       id="path112" />
    <path
       d="m 396.63,128.06 a 21.5,21.5 0 0 1 8.27,2.69 l -11.73,-6.82 v 0 c -7.87,-5.41 -19.2,-5.09 -31.79,2.17 -23.77,13.73 -43.05,47.12 -43.05,74.58 0,13.49 4.59,23.13 12.16,27.71 l 0.16,0.1 12.52,7.21 a 21.6,21.6 0 0 1 -5.71,-5.43 27.91,27.91 0 0 0 9.23,-0.53 c 1.1,-0.24 2.21,-0.53 3.34,-0.89 a 2.75,2.75 0 0 1 -0.43,-0.17 11.23,11.23 0 0 1 -1.72,-1 12.05,12.05 0 0 1 -2.6,-2.46 17.31,17.31 0 0 1 -2.44,-4.25 17.49,17.49 0 0 1 -2.46,0.18 13.4,13.4 0 0 1 -5.66,-1.13 10.81,10.81 0 0 1 -1.21,-0.65 c -0.35,-0.22 -0.7,-0.48 -1,-0.74 a 47.62,47.62 0 0 1 -1.05,-10.3 c 0,-27.45 19.28,-60.85 43.07,-74.58 a 49.26,49.26 0 0 1 9.6,-4.3 10.86,10.86 0 0 1 2.52,1.45 12.42,12.42 0 0 1 2.19,2.16 17.4,17.4 0 0 1 2.45,4.26 17.59,17.59 0 0 1 2.47,-0.17 12.75,12.75 0 0 1 6.48,1.57 10.37,10.37 0 0 1 1.43,0.94 c -0.18,-0.8 -0.37,-1.59 -0.6,-2.34 a 28.32,28.32 0 0 0 -4.44,-9.26 z"
       style="fill:#263238"
       id="path114" />
    <path
       d="m 404.9,130.75 -0.68,-0.37 a 21.48,21.48 0 0 0 -7.59,-2.32 27.35,27.35 0 0 0 -8.53,0.39 35.76,35.76 0 0 0 -4,1 49.26,49.26 0 0 0 -9.6,4.3 c -23.79,13.73 -43.07,47.13 -43.07,74.58 a 47.62,47.62 0 0 0 1.05,10.3 c 0.13,0.61 0.28,1.19 0.43,1.77 a 29.2,29.2 0 0 0 4.56,9.85 21.77,21.77 0 0 0 3.25,3.57 20.89,20.89 0 0 0 2.46,1.86 c 7.85,5.07 19,4.63 31.3,-2.49 23.79,-13.73 43.07,-47.12 43.07,-74.58 -0.01,-13.73 -4.84,-23.38 -12.65,-27.86 z m -4.7,8 a 10.37,10.37 0 0 1 1.43,0.94 13.77,13.77 0 0 1 2.05,2.06 c 3,3.76 4.59,9.61 4.59,16.89 0,24 -17.6,54.52 -38.43,66.55 -5.25,3 -10.3,4.64 -14.59,4.64 a 13.31,13.31 0 0 1 -5.22,-1 2.75,2.75 0 0 1 -0.43,-0.17 11.23,11.23 0 0 1 -1.72,-1 11.81,11.81 0 0 1 -1.86,-1.62 v 0 c -0.25,-0.26 -0.49,-0.55 -0.73,-0.84 a 17.31,17.31 0 0 1 -2.44,-4.25 33.38,33.38 0 0 1 -2.14,-12.64 c 0,-0.32 0,-0.63 0,-1 0.44,-23.9 17.85,-53.73 38.41,-65.59 0.47,-0.27 0.95,-0.54 1.43,-0.79 a 31.79,31.79 0 0 1 10.69,-3.67 17.59,17.59 0 0 1 2.47,-0.17 13.37,13.37 0 0 1 5.19,1 8.51,8.51 0 0 1 1.3,0.65 z"
       style="fill:#455a64"
       id="path116" />
    <path
       d="m 408.27,158.63 c 0,24 -17.6,54.52 -38.43,66.55 a 41.23,41.23 0 0 1 -3.9,2 26.51,26.51 0 0 1 -10.66,2.62 13.31,13.31 0 0 1 -5.22,-1 2.75,2.75 0 0 1 -0.43,-0.17 11.23,11.23 0 0 1 -1.72,-1 12.05,12.05 0 0 1 -2.6,-2.46 c -0.26,-0.35 -0.53,-0.69 -0.77,-1.08 0.47,0 1,0.07 1.46,0.07 4.29,0 9.34,-1.61 14.59,-4.64 C 381.39,207.56 399,177.08 399,153 c 0,-6.61 -1.31,-12 -3.8,-15.79 a 11.74,11.74 0 0 1 5,1.49 10.37,10.37 0 0 1 1.43,0.94 13.77,13.77 0 0 1 2.05,2.06 c 2.64,3.31 4.19,8.23 4.51,14.32 0.05,0.88 0.08,1.74 0.08,2.61 z"
       style="fill:#37474f"
       id="path118" />
    <path
       d="m 404.25,155.86 c 0,24 -17.6,54.52 -38.43,66.55 -5.25,3 -10.29,4.64 -14.59,4.64 a 13.26,13.26 0 0 1 -5.21,-1 v 0 c -0.25,-0.26 -0.49,-0.55 -0.73,-0.84 a 17.31,17.31 0 0 1 -2.44,-4.25 33.38,33.38 0 0 1 -2.14,-12.64 c 0,-0.32 0,-0.63 0,-1 0.44,-23.9 17.85,-53.73 38.41,-65.59 0.47,-0.27 0.95,-0.54 1.43,-0.79 a 31.79,31.79 0 0 1 10.69,-3.67 17.59,17.59 0 0 1 2.47,-0.17 13.37,13.37 0 0 1 5.19,1 c 0.27,0.27 0.52,0.56 0.76,0.85 3,3.78 4.59,9.63 4.59,16.91 z"
       style="opacity:0.6;fill:#ffffff"
       id="path120" />
  </g>
</svg>
